HIERARCHY
ROOT root     
{
	OFFSET 0.0000 0.0000 0.0000
	CHANNELS 6 Xposition Yposition Zposition Zrotation Yrotation Xrotation
	JOINT pelvis   
	{
		OFFSET 0.0000 0.0000 0.0000
		CHANNELS 3 Zrotation Yrotation Xrotation
		JOINT thorax   
		{
			OFFSET 0.0000 23.0750 -5.0000
			CHANNELS 3 Zrotation Yrotation Xrotation
			JOINT rclavicle
			{
				OFFSET 0.0000 28.0009 0.0000
				CHANNELS 3 Zrotation Yrotation Xrotation
				JOINT rhumerus 
				{
					OFFSET -18.5725 5.5939 0.0000
					CHANNELS 3 Zrotation Yrotation Xrotation
					JOINT rradius  
					{
						OFFSET -24.8459 0.0000 0.0000
						CHANNELS 3 Zrotation Yrotation Xrotation
						JOINT rhand    
						{
							OFFSET -24.5477 0.0000 0.0000
							CHANNELS 3 Zrotation Yrotation Xrotation
							End Site
							{
								OFFSET -8.1826 0.0000 0.0000
							}
						}
					}
				}
			}
			JOINT lclavicle
			{
				OFFSET 0.0000 28.0009 0.0000
				CHANNELS 3 Zrotation Yrotation Xrotation
				JOINT lhumerus 
				{
					OFFSET 18.5725 5.5939 0.0000
					CHANNELS 3 Zrotation Yrotation Xrotation
					JOINT lradius  
					{
						OFFSET 24.8459 0.0000 0.0000
						CHANNELS 3 Zrotation Yrotation Xrotation
						JOINT lhand    
						{
							OFFSET 24.5477 0.0000 0.0000
							CHANNELS 3 Zrotation Yrotation Xrotation
							End Site
							{
								OFFSET 8.1826 0.0000 0.0000
							}
						}
					}
				}
			}
			JOINT head     
			{
				OFFSET 0.0000 35.2030 0.0000
				CHANNELS 3 Zrotation Yrotation Xrotation
				End Site
				{
					OFFSET 0.0000 11.7343 0.0000
				}
			}
		}
		JOINT rfemur   
		{
			OFFSET -8.2817 0.0000 0.0000
			CHANNELS 3 Zrotation Yrotation Xrotation
			JOINT rtibia   
			{
				OFFSET 0.0000 -43.3627 0.0000
				CHANNELS 3 Zrotation Yrotation Xrotation
				JOINT rfoot    
				{
					OFFSET 0.0000 -38.2947 0.0000
					CHANNELS 3 Zrotation Yrotation Xrotation
					JOINT rtoes    
					{
						OFFSET 0.0000 0.0000 16.6054
						CHANNELS 3 Zrotation Yrotation Xrotation
						End Site
						{
							OFFSET 0.0000 0.0000 5.5351
						}
					}
				}
			}
		}
		JOINT lfemur   
		{
			OFFSET 8.2817 0.0000 0.0000
			CHANNELS 3 Zrotation Yrotation Xrotation
			JOINT ltibia   
			{
				OFFSET 0.0000 -43.3627 0.0000
				CHANNELS 3 Zrotation Yrotation Xrotation
				JOINT lfoot    
				{
					OFFSET 0.0000 -38.2947 0.0000
					CHANNELS 3 Zrotation Yrotation Xrotation
					JOINT ltoes    
					{
						OFFSET 0.0000 0.0000 16.6054
						CHANNELS 3 Zrotation Yrotation Xrotation
						End Site
						{
							OFFSET 0.0000 0.0000 5.5351
						}
					}
				}
			}
		}
	}
}
MOTION
Frames: 20
Frame Time: .0333333
28.067 86.456 6.3887 -6.05732 -86.394 16.4554 0 -0 0 1.8207 -21.2302 -19.0642 16.2972 -5.25293 -1.83985e-05 45.974 42.9544 -19.2874 -180 48.5114 -180 -20.7979 24.0725 -4.48156 -8.12678 6.16594 8.83003e-07 -37.0357 -52.6734 -23.5438 -180 -48.0485 180 26.0322 -17.7393 -4.13194 4.78415 9.81122 15.4576 -2.52262 -3.90111 -4.39043 -0 -0 0.904901 0.167202 -9.86793 8.33031 -1.61137 1.43033e-05 -36.3186 0.751026 13.8781 -6.90567 -0 -0 2.64939 1.0152e-05 5.52135 6.40474 0.617805 -3.6251e-06 -28.7061 
28.058 86.461 6.4028 -3.02657 -84.9519 13.5937 0 -0 0 1.60038 -21.8647 -19.2136 16.0565 -5.35961 9.39159e-08 44.9165 43.4041 -20.7016 -180 48.8243 -180 -21.0599 24.4205 -4.60687 -7.95507 5.94238 3.57464e-06 -37.2715 -52.8838 -23.2361 -180 -48.1875 180 26.008 -17.7549 -4.13162 4.87649 9.40085 15.276 -2.44884 -4.39108 -4.40161 -0 -0 1.10251 0.223288 -10.7929 8.049 -1.75376 1.21341e-05 -35.7747 0.780722 12.7812 -7.27452 -0 -0 2.69364 -3.27171e-06 5.1974 6.55618 0.595006 2.59183e-06 -28.8445 
28.06 86.466 6.418 -1.27419 -83.4496 12.0267 0 -0 0 1.36835 -22.4774 -19.3426 15.7506 -5.46192 -2.33317e-06 43.8531 43.8734 -22.2098 -180 49.1724 -180 -21.3885 24.7535 -4.74601 -7.79952 5.70273 -3.15196e-06 -37.5128 -53.1546 -22.9278 -180 -48.3509 180 25.9775 -17.774 -4.13119 4.95987 8.93521 15.0515 -2.37019 -4.88723 -4.42274 -0 -0 1.28653 0.284308 -11.7529 7.77484 -1.89969 5.64822e-06 -35.2038 0.812614 11.6419 -7.65737 -0 -0 2.70794 -7.80334e-07 4.87278 6.73081 0.572498 -4.97029e-06 -28.9754 
28.075 86.471 6.4334 -0.139152 -81.9267 11.0903 0 -0 0 1.12547 -23.0487 -19.4473 15.3757 -5.55316 1.85597e-05 42.7855 44.3543 -23.7998 -180 49.563 -180 -21.7749 25.0188 -4.88721 -7.66702 5.45045 -3.67904e-07 -37.7626 -53.4959 -22.6176 -180 -48.5439 180 25.9431 -17.7979 -4.13118 5.0305 8.41179 14.7834 -2.28609 -5.383 -4.45383 -0 -0 1.44745 0.347532 -12.7397 7.5158 -2.04676 3.02293e-07 -34.612 0.847567 10.478 -8.0558 -0 -0 2.69627 -1.80429e-06 4.54572 6.92615 0.5493 -5.85105e-07 -29.0987 
28.103 86.476 6.4478 0.650428 -80.372 10.5142 0 -0 0 0.871475 -23.5617 -19.5206 14.9366 -5.62563 1.20191e-05 41.7105 44.8393 -25.4561 -180 50.0063 -180 -22.201 25.1746 -5.01712 -7.56344 5.18952 -1.55381e-06 -38.0262 -53.9178 -22.302 -180 -48.7705 180 25.9103 -17.8273 -4.13271 5.08392 7.82929 14.4714 -2.19714 -5.87086 -4.49364 -0 -0 1.58006 0.410492 -13.7423 7.27745 -2.19314 2.5516e-05 -34.0084 0.886299 9.30355 -8.46628 -0 -0 2.65923 1.62934e-06 4.21854 7.14225 0.525404 8.94043e-07 -29.2124 
28.144 86.481 6.4613 1.24247 -78.8232 10.1413 0 -0 0 0.599484 -23.9965 -19.5479 14.4392 -5.67132 2.03689e-05 40.6069 45.3222 -27.1794 -180 50.5172 -180 -22.6465 25.1987 -5.12533 -7.49249 4.92364 1.0738e-06 -38.3066 -54.4298 -21.9792 -180 -49.0328 180 25.8845 -17.8577 -4.13556 5.11649 7.18844 14.1111 -2.10765 -6.35014 -4.53212 -0 -0 1.67666 0.468656 -14.7421 7.06586 -2.33421 4.25352e-06 -33.4049 0.92754 8.13318 -8.87424 -0 -0 2.59266 -2.20595e-06 3.89657 7.37955 0.501311 -1.70604e-06 -29.3157 
28.204 86.487 6.4699 1.67635 -77.2876 9.94535 0 -0 0 0.330053 -24.3449 -19.5494 13.8844 -5.67991 -8.45653e-06 39.4662 45.7884 -28.9523 -180 51.0961 -180 -23.1005 25.1029 -5.21035 -7.46164 4.65705 -1.8586e-06 -38.608 -55.0283 -21.6462 -180 -49.331 180 25.8714 -17.9002 -4.14332 5.11752 6.49211 13.7 -2.00923 -6.79613 -4.5977 -0 -0 1.74978 0.524672 -15.7568 6.88011 -2.47627 -2.35834e-05 -32.8115 0.974112 6.98749 -9.31508 -0 -0 2.52544 6.52069e-06 3.56573 7.62754 0.473892 -8.1933e-06 -29.4145 
28.275 86.492 6.4768 2.03699 -75.7857 9.81499 0 -0 0 0.0343719 -24.5824 -19.4801 13.2902 -5.64604 2.14591e-05 38.2466 46.2445 -30.7893 -180 51.7654 -180 -23.5421 24.9084 -5.27019 -7.46825 4.39248 1.63363e-06 -38.9353 -55.72 -21.2999 -180 -49.6655 180 25.8818 -17.9428 -4.1551 5.08718 5.74423 13.229 -1.91712 -7.2301 -4.65185 -0 -0 1.7854 0.570492 -16.7372 6.72565 -2.60768 1.0912e-05 -32.2331 1.01936 5.87718 -9.73637 -0 -0 2.43185 -8.07578e-06 3.24316 7.89384 0.445897 -2.83937e-06 -29.5036 
28.365 86.498 6.4777 2.32007 -74.3202 9.77376 0 -0 0 -0.25906 -24.7082 -19.3718 12.6503 -5.56023 2.25309e-05 36.9547 46.674 -32.6733 -180 52.522 -180 -23.9829 24.6737 -5.31942 -7.51752 4.13198 -1.88294e-06 -39.2951 -56.4925 -20.9363 -180 -50.0318 180 25.922 -17.9946 -4.17398 5.01396 4.95173 12.6949 -1.82084 -7.62797 -4.72963 -0 -0 1.80258 0.611622 -17.7083 6.59772 -2.73764 1.08071e-05 -31.6818 1.06678 4.81816 -10.1812 -0 -0 2.34734 6.24517e-06 2.91364 8.16582 0.4142 -2.05674e-06 -29.588 
28.467 86.504 6.4756 2.56871 -72.9168 9.75255 0 -0 0 -0.573021 -24.7066 -19.1866 11.979 -5.42224 -2.45449e-05 35.5626 47.0861 -34.6145 -180 53.3786 -180 -24.4189 24.4587 -5.37033 -7.60545 3.87732 -3.5825e-06 -39.681 -57.3463 -20.5574 -180 -50.4268 180 25.9968 -18.0474 -4.19897 4.89792 4.12138 12.0858 -1.73386 -8.00577 -4.80145 -0 -0 1.79846 0.644405 -18.6339 6.49616 -2.85918 1.18809e-06 -31.1597 1.10911 3.81824 -10.607 -0 -0 2.25299 -2.35197e-06 2.5905 8.44864 0.380897 -1.18474e-06 -29.6613 
28.582 86.512 6.4705 2.79223 -71.5817 9.73604 0 -0 0 -0.904978 -24.5717 -18.9216 11.2751 -5.23177 3.87887e-06 34.0771 47.4822 -36.6071 -180 54.3452 -180 -24.8644 24.341 -5.44415 -7.7325 3.62949 1.68079e-06 -40.0952 -58.2687 -20.1634 -180 -50.8436 180 26.1066 -18.1002 -4.22982 4.73533 3.26231 11.395 -1.65814 -8.36358 -4.86716 -0 -0 1.78174 0.67071 -19.5096 6.4174 -2.97328 4.95918e-06 -30.6698 1.14307 2.88631 -11.0107 -0 -0 2.15619 2.86128e-06 2.27281 8.73901 0.345505 -1.1819e-07 -29.7231 
28.71 86.521 6.4608 2.98843 -70.3146 9.73383 0 -0 0 -1.23899 -24.3083 -18.587 10.5217 -4.98839 4.35938e-06 32.5511 47.8587 -38.6212 -180 55.4212 -180 -25.347 24.3878 -5.56412 -7.8992 3.38624 -1.34938e-06 -40.5315 -59.2403 -19.7582 -180 -51.2766 180 26.255 -18.1525 -4.26725 4.52202 2.38254 10.6198 -1.58909 -8.69602 -4.94002 -0 -0 1.76456 0.695049 -20.3409 6.35668 -3.08552 1.56752e-05 -30.217 1.17018 2.02647 -11.4094 -0 -0 2.07626 -2.33114e-06 1.95639 9.02918 0.307197 3.16089e-07 -29.7738 
28.847 86.533 6.4495 3.17544 -69.1285 9.7072 0 -0 0 -1.58764 -23.909 -18.1637 9.72445 -4.70285 3.37213e-06 31.0057 48.241 -40.6453 -180 56.6361 -180 -25.8741 24.6625 -5.74954 -8.10328 3.14886 8.5616e-07 -40.982 -60.2571 -19.3442 -180 -51.7183 180 26.4316 -18.196 -4.30732 4.2618 1.49202 9.75475 -1.53656 -9.01667 -4.99619 -0 -0 1.74658 0.71621 -21.1041 6.31275 -3.1913 -1.36412e-05 -29.7914 1.18329 1.2429 -11.7697 -0 -0 2.00086 -5.36247e-06 1.65036 9.3218 0.267399 -8.32851e-08 -29.8057 
28.993 86.548 6.4367 3.35307 -68.0293 9.65176 0 -0 0 -1.94484 -23.3789 -17.6499 8.86862 -4.38127 3.13887e-06 29.5064 48.6402 -42.6456 -180 58.0064 -180 -26.467 25.2017 -6.01842 -8.34447 2.91547 5.33799e-06 -41.4383 -61.3001 -18.9289 -180 -52.1632 180 26.6301 -18.2272 -4.34842 3.95748 0.5987 8.80399 -1.50034 -9.32531 -5.03487 -0 -0 1.73381 0.736781 -21.7999 6.28313 -3.29316 -3.66693e-07 -29.3939 1.18164 0.53631 -12.0911 -0 -0 1.93667 4.84675e-06 1.35675 9.61344 0.226604 -4.10203e-07 -29.8189 
29.145 86.567 6.423 3.52289 -67.0182 9.56148 0 -0 0 -2.30572 -22.7185 -17.0518 7.9457 -4.03211 3.0048e-06 28.1224 49.0784 -44.5855 -180 59.5664 -180 -27.1385 26.0124 -6.38178 -8.62344 2.68563 3.34121e-06 -41.899 -62.3572 -18.5093 -180 -52.6077 180 26.8359 -18.2433 -4.38719 3.61377 -0.2894 7.77565 -1.48175 -9.62456 -5.05006 -0 -0 1.72683 0.75695 -22.4192 6.26884 -3.39116 -2.45496e-05 -29.0238 1.16404 -0.0923931 -12.3649 -0 -0 1.8864 -1.69508e-08 1.07911 9.90084 0.185606 4.21926e-07 -29.8095 
29.3 86.59 6.4087 3.68494 -66.1077 9.43078 0 -0 0 -2.66561 -21.9336 -16.3722 6.95037 -3.66121 -7.3047e-06 26.9134 49.5717 -46.4295 -180 61.3499 -180 -27.8985 27.0629 -6.84181 -8.94052 2.45844 -3.21471e-06 -42.3598 -63.4171 -18.0849 -180 -53.0486 180 27.0369 -18.2403 -4.42049 3.23813 -1.1649 6.6847 -1.48117 -9.91549 -5.0364 -0 -0 1.72316 0.775602 -22.9587 6.27198 -3.48466 -1.00303e-05 -28.6738 1.13019 -0.642408 -12.5869 -0 -0 1.85188 -8.12386e-07 0.822295 10.1823 0.145405 1.65932e-06 -29.7749 
29.458 86.619 6.3937 3.83906 -65.3039 9.25969 0 -0 0 -3.01763 -21.0303 -15.6246 5.8909 -3.27349 3.18972e-07 25.9192 50.1463 -48.149 -180 63.4124 -180 -28.7468 28.2821 -7.3882 -9.29677 2.23653 -2.60093e-07 -42.8215 -64.4693 -17.6507 -180 -53.4883 180 27.2165 -18.2176 -4.44542 2.83892 -2.01986 5.55251 -1.49753 -10.1964 -4.99013 -0 -0 1.71778 0.790355 -23.4121 6.29606 -3.57206 -3.31089e-06 -28.3364 1.0816 -1.11225 -12.7553 -0 -0 1.83607 1.21725e-07 0.590899 10.4535 0.107199 -8.24142e-08 -29.7151 
29.615 86.652 6.3775 3.98576 -64.6141 9.04685 0 -0 0 -3.35659 -20.0116 -14.8246 4.75105 -2.85792 -3.2915e-06 25.2202 50.7822 -49.7055 -180 65.7838 -180 -29.6772 29.5672 -7.99896 -9.69228 2.01552 -3.0052e-06 -43.2922 -65.4926 -17.1975 -180 -53.9303 180 27.3656 -18.1825 -4.46199 2.42421 -2.85079 4.40786 -1.53045 -10.4654 -4.90913 -0 -0 1.70564 0.798355 -23.776 6.34929 -3.65359 -2.43871e-05 -28.0411 1.0199 -1.50336 -12.867 -0 -0 1.83985 1.38693e-07 0.391701 10.711 0.0727996 1.18258e-07 -29.6251 
29.771 86.691 6.3589 4.1194 -64.0471 8.80379 0 -0 0 -3.675 -18.8863 -13.9932 3.58349 -2.422 -6.2026e-07 24.7504 51.5132 -51.1115 -180 68.5538 -180 -30.6779 30.8079 -8.64374 -10.1276 1.80655 6.35116e-06 -43.8002 -66.489 -16.6942 -180 -54.3747 180 27.4637 -18.1348 -4.46654 2.00383 -3.64776 3.28076 -1.57609 -10.7148 -4.79648 -0 -0 1.67747 0.795186 -24.046 6.43308 -3.72432 -1.34002e-05 -27.7491 0.949788 -1.81293 -12.929 -0 -0 1.86631 -2.06958e-07 0.229899 10.9517 0.0436996 -1.89153e-07 -29.5163 
29.924 86.733 6.3365 4.2435 -63.6149 8.53183 0 -0 0 -3.96896 -17.6598 -13.1535 2.37097 -1.94123 -1.6348e-06 24.5732 52.2894 -52.3458 -180 71.7433 -180 -31.7096 31.8919 -9.27845 -10.6014 1.6064 -3.37026e-06 -44.3571 -67.4344 -16.126 -180 -54.8309 180 27.5163 -18.0843 -4.46276 1.58428 -4.40839 2.20745 -1.63342 -10.9418 -4.65529 -0 -0 1.62565 0.776883 -24.2163 6.55727 -3.78358 1.07847e-05 -27.5025 0.872611 -2.03713 -12.9474 -0 -0 1.91801 7.51845e-08 0.1077 11.1697 0.0208996 -1.91863e-07 -29.3803 
